#!OML:ASF I:\Actors\actors\Patient Classification 2\Patient 1\Session 1\actor1.ASF
:FULLY-SPECIFIED
:DEGREES
372
root -0.645367 18.7474 5.66983 3.26443 -4.64689 -4.97808
lowerback 9.62347 0.138183 0.517325
upperback 2.99637 0.224675 -0.0839866
thorax -2.28201 0.109748 -0.403287
lowerneck 1.32092 -0.282323 0.734826
upperneck -1.22443 -0.282647 5.64834
head -0.592285 -0.19071 1.62841
rclavicle 8.15017e-015 -5.56597e-015
rhumerus 15.2801 1.16415 -27.2262
rradius 126.005
rwrist -60.0383
rhand 30.0757 -50.5491
rfingers 7.12502
rthumb 53.7751 -69.5381
lclavicle 8.15017e-015 -5.56597e-015
lhumerus -27.1245 -25.1199 83.6607
lradius 120.707
lwrist 14.3304
lhand -4.93051 -33.1304
lfingers 7.12502
lthumb 20.8602 -4.23189
rfemur 0 0 0
rtibia 0
rfoot 0 0
rtoes 0
lfemur -7.11925 -4.70006 -9.30678
ltibia 23.7818
lfoot -24.2444 15.7858
ltoes -54.8614
373
root -0.645379 18.7465 5.67424 3.24466 -4.6436 -4.97097
lowerback 9.5698 0.120222 0.465889
upperback 2.97724 0.197005 -0.0447923
thorax -2.27289 0.0959251 -0.330565
lowerneck 1.3612 -0.262124 0.679457
upperneck -1.17975 -0.258758 5.58914
head -0.585794 -0.177632 1.61882
rclavicle 7.95139e-016 3.18055e-015
rhumerus 15.5838 1.17535 -27.7336
rradius 126.113
rwrist -58.4254
rhand 30.3784 -50.6249
rfingers 7.12502
rthumb 54.0469 -69.4312
lclavicle 7.95139e-016 3.18055e-015
lhumerus -27.2162 -25.0684 83.7928
lradius 120.714
lwrist 14.6351
lhand -4.92708 -33.0617
lfingers 7.12502
lthumb 20.8635 -4.16353
rfemur 0 0 0
rtibia 0
rfoot 0 0
rtoes 0
lfemur -7.08281 -4.72425 -9.31969
ltibia 23.7854
lfoot -24.2909 15.7749
ltoes -54.8515
374
root -0.64581 18.7457 5.67807 3.21433 -4.65904 -4.95834
lowerback 9.52699 0.118059 0.404632
upperback 2.968 0.189045 -0.0172843
thorax -2.25927 0.0919413 -0.266672
lowerneck 1.38908 -0.232362 0.65833
upperneck -1.16816 -0.220101 5.52715
head -0.587818 -0.157871 1.60239
rclavicle -1.74931e-014 1.03368e-014
rhumerus 15.6241 1.17928 -27.775
rradius 126.064
rwrist -57.7414
rhand 30.2914 -50.333
rfingers 7.12502
rthumb 53.9687 -69.1922
lclavicle -1.74931e-014 1.03368e-014
lhumerus -27.2932 -25.0294 83.8937
lradius 120.723
lwrist 14.8011
lhand -4.93732 -32.9777
lfingers 7.12502
lthumb 20.8536 -4.0785
rfemur 0 0 0
rtibia 0
rfoot 0 0
rtoes 0
lfemur -7.02651 -4.77025 -9.34348
ltibia 23.7825
lfoot -24.3616 15.7933
ltoes -54.8025
375
root -0.646212 18.7457 5.68089 3.2163 -4.66412 -4.98588
lowerback 9.47655 0.127325 0.394819
upperback 2.95719 0.200787 0.00144453
thorax -2.24269 0.0977806 -0.242989
lowerneck 1.34447 -0.210095 0.622145
upperneck -1.12608 -0.193753 5.56193
head -0.568059 -0.143215 1.61915
rclavicle 1.39149e-014 3.18055e-015
rhumerus 15.6148 1.13186 -27.8316
rradius 126.06
rwrist -57.4435
rhand 30.0288 -50.3583
rfingers 7.12502
rthumb 53.7328 -69.3754
lclavicle 1.39149e-014 3.18055e-015
lhumerus -27.3265 -25.0386 83.9389
lradius 120.744
lwrist 14.8383
lhand -5.01876 -32.8513
lfingers 7.12502
lthumb 20.7754 -3.94345
rfemur 0 0 0
rtibia 0
rfoot 0 0
rtoes 0
lfemur -7.01357 -4.70469 -9.30655
ltibia 23.7709
lfoot -24.342 15.7474
ltoes -54.7806
376
root -0.645671 18.7459 5.68359 3.23424 -4.64868 -5.00117
lowerback 9.41639 0.127833 0.396306
upperback 2.93579 0.201848 0.0150688
thorax -2.23171 0.0983095 -0.229726
lowerneck 1.26594 -0.191337 0.522472
upperneck -1.0241 -0.176233 5.66383
head -0.524023 -0.13136 1.66816
rclavicle 1.35174e-014 -2.46493e-014
rhumerus 15.5672 1.15475 -27.9003
rradius 126.099
rwrist -56.5055
rhand 29.7906 -50.0564
rfingers 7.12502
rthumb 53.5186 -69.2148
lclavicle 1.35174e-014 -2.46493e-014
lhumerus -27.3703 -25.0458 83.973
lradius 120.765
lwrist 14.8345
lhand -5.11477 -32.725
lfingers 7.12502
lthumb 20.6831 -3.80713
rfemur 0 0 0
rtibia 0
rfoot 0 0
rtoes 0
lfemur -7.02453 -4.66825 -9.28493
ltibia 23.7601
lfoot -24.3165 15.7269
ltoes -54.8076
377
root -0.644113 18.7459 5.68753 3.2308 -4.65266 -4.98709
lowerback 9.36364 0.143862 0.398394
upperback 2.92001 0.222983 0.00948301
thorax -2.2188 0.108867 -0.238877
lowerneck 1.17736 -0.185868 0.442776
upperneck -0.894981 -0.178049 5.73845
head -0.469244 -0.128266 1.70508
rclavicle -7.7526e-015 -1.19271e-014
rhumerus 15.4778 1.23117 -27.9546
rradius 126.116
rwrist -54.4956
rhand 29.799 -49.1961
rfingers 7.12502
rthumb 53.5262 -68.3495
lclavicle -7.7526e-015 -1.19271e-014
lhumerus -27.4003 -25.0793 84.0113
lradius 120.763
lwrist 14.8199
lhand -5.15414 -32.6112
lfingers 7.12502
lthumb 20.6453 -3.68918
rfemur 0 0 0
rtibia 0
rfoot 0 0
rtoes 0
lfemur -6.99629 -4.77435 -9.32031
ltibia 23.7527
lfoot -24.3819 15.8098
ltoes -54.8078
